<svg xmlns="http://www.w3.org/2000/svg" width="24" height="22" viewBox="0 0 24 22">
  <path id="AdobeStock_65773487" d="M193.2,200.248,187.31,195.4a.6.6,0,0,0-.724,0l-5.892,4.845H175V210.7a1.193,1.193,0,0,0,1.2,1.178h8.6v-2.481a2.2,2.2,0,0,1,4.409,0v2.481h8.6A1.193,1.193,0,0,0,199,210.7V200.248Zm-14.649,10.271H176.5V208.5h2.056Zm0-3.589H176.5v-2.018h2.056Zm3.674,3.589h-2.056V208.5h2.056Zm0-3.589h-2.056v-2.018h2.056ZM187,202.268a1.613,1.613,0,1,1,1.643-1.612A1.628,1.628,0,0,1,187,202.268Zm7.918-7.246h-4.152l-.733-.6V191.99h3.424v-2.116h-3.808a.38.38,0,0,0-.384.377v3.536l-1.912-1.575a.639.639,0,0,0-.81,0l-3.413,2.811h-3.647l-4.484,4h5.229l6.719-5.535,6.719,5.535H199Zm-1.089,15.5h-2.056V208.5h2.056Zm0-3.589h-2.056v-2.018h2.056Zm3.674,3.589h-2.056V208.5H197.5Zm0-3.589h-2.056v-2.018H197.5Z" transform="translate(-175 -189.873)" fill="#000"/>
</svg>
